<svg xmlns="http://www.w3.org/2000/svg" viewBox="0 0 280 390" width="280" height="390">
  <defs>
    <linearGradient id="bg" x1="0%" y1="0%" x2="100%" y2="100%">
      <stop offset="0%" style="stop-color:#0d0d10"/>
      <stop offset="50%" style="stop-color:#05050F"/>
      <stop offset="100%" style="stop-color:#0d0d10"/>
    </linearGradient>
    <linearGradient id="artbg" x1="0%" y1="0%" x2="100%" y2="100%">
      <stop offset="0%" style="stop-color:#0d0d10"/>
      <stop offset="100%" style="stop-color:#06050F"/>
    </linearGradient>
    <radialGradient id="glow" cx="50%" cy="50%" r="50%">
      <stop offset="0%" style="stop-color:#9CA3AF;stop-opacity:0.35"/>
      <stop offset="100%" style="stop-color:transparent;stop-opacity:0"/>
    </radialGradient>
    <linearGradient id="shimmer" x1="0%" y1="0%" x2="100%" y2="0%">
      <stop offset="0%" style="stop-color:transparent"/>
      <stop offset="40%" style="stop-color:white;stop-opacity:0.07"/>
      <stop offset="50%" style="stop-color:white;stop-opacity:0.18"/>
      <stop offset="60%" style="stop-color:white;stop-opacity:0.07"/>
      <stop offset="100%" style="stop-color:transparent"/>
    </linearGradient>
    <linearGradient id="foil" x1="0%" y1="0%" x2="100%" y2="100%">
      <stop offset="0%"   style="stop-color:#9CA3AF;stop-opacity:0.12"/>
      <stop offset="33%"  style="stop-color:#D1D5DB;stop-opacity:0.08"/>
      <stop offset="66%"  style="stop-color:#9CA3AF;stop-opacity:0.12"/>
      <stop offset="100%" style="stop-color:#D1D5DB;stop-opacity:0.06"/>
    </linearGradient>
    <filter id="glow-filter">
      <feGaussianBlur stdDeviation="6" result="blur"/>
      <feMerge><feMergeNode in="blur"/><feMergeNode in="SourceGraphic"/></feMerge>
    </filter>
    <filter id="text-glow">
      <feGaussianBlur stdDeviation="2" result="blur"/>
      <feMerge><feMergeNode in="blur"/><feMergeNode in="SourceGraphic"/></feMerge>
    </filter>
    <clipPath id="card-clip"><rect x="0" y="0" width="280" height="390" rx="14"/></clipPath>
  </defs>
  
  <!-- Card base -->
  <g clip-path="url(#card-clip)">
    <rect width="280" height="390" fill="url(#bg)"/>
    
    <!-- Art area background -->
    <rect x="12" y="38" width="256" height="236" fill="url(#artbg)" rx="6"/>
    
    <!-- Radial glow in art area -->
    <ellipse cx="140" cy="155" rx="120" ry="110" fill="url(#glow)"/>
    
    <!-- Creature art -->
    
      <!-- Lightning aura -->
      <ellipse cx="140" cy="190" rx="68" ry="72" fill="#F1C40F" opacity="0.1"/>
      <!-- Body -->
      <ellipse cx="140" cy="200" rx="35" ry="45" fill="#F1C40F" opacity="0.45"/>
      <!-- Head -->
      <ellipse cx="140" cy="155" rx="30" ry="28" fill="#F1C40F" opacity="0.55"/>
      <!-- Ears (lightning shaped) -->
      <path d="M115,140 L105,115 L120,130 Z" fill="#F1C40F" opacity="0.7"/>
      <path d="M165,140 L175,115 L160,130 Z" fill="#F1C40F" opacity="0.7"/>
      <!-- Eyes -->
      <circle cx="130" cy="152" r="5" fill="#FFE066" opacity="0.9"/>
      <circle cx="150" cy="152" r="5" fill="#FFE066" opacity="0.9"/>
      <circle cx="130" cy="152" r="2" fill="#fff" opacity="0.9"/>
      <circle cx="150" cy="152" r="2" fill="#fff" opacity="0.9"/>
      <!-- Cheeks -->
      <circle cx="118" cy="163" r="8" fill="#FFE066" opacity="0.5"/>
      <circle cx="162" cy="163" r="8" fill="#FFE066" opacity="0.5"/>
      <!-- Tail lightning -->
      <path d="M162,235 L180,210 L168,215 L185,185 L170,192 L188,162" fill="none" stroke="#FFE066" stroke-width="3" opacity="0.6"/>
      <!-- Bolts -->
      <path d="M65,140 L75,155 L68,155 L80,172" fill="none" stroke="#FFE066" stroke-width="2.5" opacity="0.5"/>
      <path d="M215,145 L205,160 L212,160 L200,177" fill="none" stroke="#FFE066" stroke-width="2.5" opacity="0.5"/>
    
    
    <!-- Particles -->
    
    
    <!-- Foil overlay on art -->
    <rect x="12" y="38" width="256" height="236" fill="url(#foil)" rx="6"/>
    
    <!-- Shimmer sweep (animated) -->
    
    
    <!-- Bottom info panel -->
    <rect x="0" y="282" width="280" height="108" fill="#0d0d10" opacity="0.95"/>
    <rect x="0" y="282" width="280" height="1" fill="#9CA3AF" opacity="0.5"/>
    
    <!-- Rarity color strip -->
    <rect x="0" y="282" width="280" height="3" fill="#9CA3AF" opacity="0.8"/>
    
    <!-- Card name -->
    <text x="140" y="307" text-anchor="middle" font-family="Arial Black,sans-serif"
      font-size="15" font-weight="900" fill="#D1D5DB" filter="url(#text-glow)"
      letter-spacing="0.5">Pikachu (Common)</text>
    
    <!-- Set + number -->
    <text x="20" y="328" font-family="Arial,sans-serif" font-size="9"
      fill="#9CA3AF" opacity="0.7" letter-spacing="0.5">151 · C025</text>
    
    <!-- Rarity label -->
    <text x="260" y="328" text-anchor="end" font-family="Arial,sans-serif" font-size="9"
      fill="#9CA3AF" opacity="0.7">COMMON</text>
    
    <!-- Divider line -->
    <line x1="16" y1="334" x2="264" y2="334" stroke="#9CA3AF" stroke-width="0.5" opacity="0.3"/>
    
    <!-- Price -->
    <text x="140" y="358" text-anchor="middle" font-family="Arial Black,monospace"
      font-size="22" font-weight="900" fill="#9CA3AF" filter="url(#glow-filter)">€0.50</text>
    
    <!-- PokéVault watermark -->
    <text x="140" y="378" text-anchor="middle" font-family="Arial,sans-serif"
      font-size="8" fill="#9CA3AF" opacity="0.3" letter-spacing="3">POKÉVAULT</text>
    
    <!-- Outer borders -->
    <rect x="0" y="0" width="280" height="390" fill="none" stroke="#9CA3AF" stroke-width="2" rx="14" opacity="0.7"/>
    <rect x="5" y="5" width="270" height="380" fill="none" stroke="#D1D5DB" stroke-width="0.5" rx="11" opacity="0.4"/>
    
    <!-- Top type bar -->
    <rect x="12" y="12" width="256" height="22" fill="#9CA3AF" opacity="0.15" rx="4"/>
    <rect x="12" y="12" width="256" height="22" fill="none" stroke="#9CA3AF" stroke-width="0.5" rx="4" opacity="0.4"/>
    
    <!-- HP / energy dots in top bar -->
    <circle cx="24" cy="23" r="5" fill="#9CA3AF" opacity="0.7"/>
    <circle cx="37" cy="23" r="5" fill="#9CA3AF" opacity="0.5"/>
    <circle cx="50" cy="23" r="5" fill="#9CA3AF" opacity="0.3"/>
    
    <!-- Card type text in top bar -->
    <text x="140" y="27" text-anchor="middle" font-family="Arial,sans-serif"
      font-size="9" fill="#D1D5DB" opacity="0.8" letter-spacing="4">ELECTRIC</text>
    
    <!-- HP value -->
    <text x="256" y="27" text-anchor="end" font-family="Arial Black,sans-serif"
      font-size="10" fill="#D1D5DB" opacity="0.7">HP 51</text>
  </g>
</svg>