<svg xmlns="http://www.w3.org/2000/svg" viewBox="0 0 280 390" width="280" height="390">
  <defs>
    <linearGradient id="bg" x1="0%" y1="0%" x2="100%" y2="100%">
      <stop offset="0%" style="stop-color:#1a0800"/>
      <stop offset="50%" style="stop-color:#05050F"/>
      <stop offset="100%" style="stop-color:#1a0800"/>
    </linearGradient>
    <linearGradient id="artbg" x1="0%" y1="0%" x2="100%" y2="100%">
      <stop offset="0%" style="stop-color:#1a0800"/>
      <stop offset="100%" style="stop-color:#06050F"/>
    </linearGradient>
    <radialGradient id="glow" cx="50%" cy="50%" r="50%">
      <stop offset="0%" style="stop-color:#FB923C;stop-opacity:0.35"/>
      <stop offset="100%" style="stop-color:transparent;stop-opacity:0"/>
    </radialGradient>
    <linearGradient id="shimmer" x1="0%" y1="0%" x2="100%" y2="0%">
      <stop offset="0%" style="stop-color:transparent"/>
      <stop offset="40%" style="stop-color:white;stop-opacity:0.07"/>
      <stop offset="50%" style="stop-color:white;stop-opacity:0.18"/>
      <stop offset="60%" style="stop-color:white;stop-opacity:0.07"/>
      <stop offset="100%" style="stop-color:transparent"/>
    </linearGradient>
    <linearGradient id="foil" x1="0%" y1="0%" x2="100%" y2="100%">
      <stop offset="0%"   style="stop-color:#FB923C;stop-opacity:0.12"/>
      <stop offset="33%"  style="stop-color:#FED7AA;stop-opacity:0.08"/>
      <stop offset="66%"  style="stop-color:#FB923C;stop-opacity:0.12"/>
      <stop offset="100%" style="stop-color:#FED7AA;stop-opacity:0.06"/>
    </linearGradient>
    <filter id="glow-filter">
      <feGaussianBlur stdDeviation="6" result="blur"/>
      <feMerge><feMergeNode in="blur"/><feMergeNode in="SourceGraphic"/></feMerge>
    </filter>
    <filter id="text-glow">
      <feGaussianBlur stdDeviation="2" result="blur"/>
      <feMerge><feMergeNode in="blur"/><feMergeNode in="SourceGraphic"/></feMerge>
    </filter>
    <clipPath id="card-clip"><rect x="0" y="0" width="280" height="390" rx="14"/></clipPath>
  </defs>
  
  <!-- Card base -->
  <g clip-path="url(#card-clip)">
    <rect width="280" height="390" fill="url(#bg)"/>
    
    <!-- Art area background -->
    <rect x="12" y="38" width="256" height="236" fill="url(#artbg)" rx="6"/>
    
    <!-- Radial glow in art area -->
    <ellipse cx="140" cy="155" rx="120" ry="110" fill="url(#glow)"/>
    
    <!-- Creature art -->
    
      <!-- Dark aura -->
      <ellipse cx="140" cy="195" rx="72" ry="78" fill="#6A0DAD" opacity="0.08"/>
      <ellipse cx="140" cy="195" rx="55" ry="60" fill="#6A0DAD" opacity="0.12"/>
      <!-- Shadow tendrils -->
      <path d="M95,250 Q80,220 90,200 Q100,215 95,250 Z" fill="#6A0DAD" opacity="0.35"/>
      <path d="M185,250 Q200,220 190,200 Q180,215 185,250 Z" fill="#6A0DAD" opacity="0.35"/>
      <path d="M120,265 Q110,240 120,225 Q128,238 120,265 Z" fill="#6A0DAD" opacity="0.3"/>
      <path d="M160,265 Q170,240 160,225 Q152,238 160,265 Z" fill="#6A0DAD" opacity="0.3"/>
      <!-- Body -->
      <ellipse cx="140" cy="200" rx="42" ry="52" fill="#6A0DAD" opacity="0.45"/>
      <!-- Head -->
      <ellipse cx="140" cy="150" rx="32" ry="30" fill="#6A0DAD" opacity="0.55"/>
      <!-- Glowing eyes -->
      <ellipse cx="128" cy="147" rx="8" ry="6" fill="#C39BD3" opacity="0.95"/>
      <ellipse cx="152" cy="147" rx="8" ry="6" fill="#C39BD3" opacity="0.95"/>
      <ellipse cx="128" cy="147" rx="4" ry="3" fill="#fff" opacity="0.9"/>
      <ellipse cx="152" cy="147" rx="4" ry="3" fill="#fff" opacity="0.9"/>
      <!-- Ring markings -->
      <circle cx="140" cy="195" r="20" fill="none" stroke="#C39BD3" stroke-width="1.5" opacity="0.4"/>
    
    
    <!-- Particles -->
    
    
    <!-- Foil overlay on art -->
    <rect x="12" y="38" width="256" height="236" fill="url(#foil)" rx="6"/>
    
    <!-- Shimmer sweep (animated) -->
    
    
    <!-- Bottom info panel -->
    <rect x="0" y="282" width="280" height="108" fill="#1a0800" opacity="0.95"/>
    <rect x="0" y="282" width="280" height="1" fill="#FB923C" opacity="0.5"/>
    
    <!-- Rarity color strip -->
    <rect x="0" y="282" width="280" height="3" fill="#FB923C" opacity="0.8"/>
    
    <!-- Card name -->
    <text x="140" y="307" text-anchor="middle" font-family="Arial Black,sans-serif"
      font-size="15" font-weight="900" fill="#FED7AA" filter="url(#text-glow)"
      letter-spacing="0.5">Gengar — Illustration</text>
    
    <!-- Set + number -->
    <text x="20" y="328" font-family="Arial,sans-serif" font-size="9"
      fill="#FB923C" opacity="0.7" letter-spacing="0.5">151 · 172</text>
    
    <!-- Rarity label -->
    <text x="260" y="328" text-anchor="end" font-family="Arial,sans-serif" font-size="9"
      fill="#FB923C" opacity="0.7">ILLUSTRATION RARE</text>
    
    <!-- Divider line -->
    <line x1="16" y1="334" x2="264" y2="334" stroke="#FB923C" stroke-width="0.5" opacity="0.3"/>
    
    <!-- Price -->
    <text x="140" y="358" text-anchor="middle" font-family="Arial Black,monospace"
      font-size="22" font-weight="900" fill="#FB923C" filter="url(#glow-filter)">€14</text>
    
    <!-- PokéVault watermark -->
    <text x="140" y="378" text-anchor="middle" font-family="Arial,sans-serif"
      font-size="8" fill="#FB923C" opacity="0.3" letter-spacing="3">POKÉVAULT</text>
    
    <!-- Outer borders -->
    <rect x="0" y="0" width="280" height="390" fill="none" stroke="#FB923C" stroke-width="2" rx="14" opacity="0.7"/>
    <rect x="5" y="5" width="270" height="380" fill="none" stroke="#FED7AA" stroke-width="0.5" rx="11" opacity="0.4"/>
    
    <!-- Top type bar -->
    <rect x="12" y="12" width="256" height="22" fill="#FB923C" opacity="0.15" rx="4"/>
    <rect x="12" y="12" width="256" height="22" fill="none" stroke="#FB923C" stroke-width="0.5" rx="4" opacity="0.4"/>
    
    <!-- HP / energy dots in top bar -->
    <circle cx="24" cy="23" r="5" fill="#FB923C" opacity="0.7"/>
    <circle cx="37" cy="23" r="5" fill="#FB923C" opacity="0.5"/>
    <circle cx="50" cy="23" r="5" fill="#FB923C" opacity="0.3"/>
    
    <!-- Card type text in top bar -->
    <text x="140" y="27" text-anchor="middle" font-family="Arial,sans-serif"
      font-size="9" fill="#FED7AA" opacity="0.8" letter-spacing="4">DARK</text>
    
    <!-- HP value -->
    <text x="256" y="27" text-anchor="end" font-family="Arial Black,sans-serif"
      font-size="10" fill="#FED7AA" opacity="0.7">HP 78</text>
  </g>
</svg>