<svg xmlns="http://www.w3.org/2000/svg" viewBox="0 0 280 390" width="280" height="390">
  <defs>
    <linearGradient id="bg" x1="0%" y1="0%" x2="100%" y2="100%">
      <stop offset="0%" style="stop-color:#1a0800"/>
      <stop offset="50%" style="stop-color:#05050F"/>
      <stop offset="100%" style="stop-color:#1a0800"/>
    </linearGradient>
    <linearGradient id="artbg" x1="0%" y1="0%" x2="100%" y2="100%">
      <stop offset="0%" style="stop-color:#1a0800"/>
      <stop offset="100%" style="stop-color:#06050F"/>
    </linearGradient>
    <radialGradient id="glow" cx="50%" cy="50%" r="50%">
      <stop offset="0%" style="stop-color:#FB923C;stop-opacity:0.35"/>
      <stop offset="100%" style="stop-color:transparent;stop-opacity:0"/>
    </radialGradient>
    <linearGradient id="shimmer" x1="0%" y1="0%" x2="100%" y2="0%">
      <stop offset="0%" style="stop-color:transparent"/>
      <stop offset="40%" style="stop-color:white;stop-opacity:0.07"/>
      <stop offset="50%" style="stop-color:white;stop-opacity:0.18"/>
      <stop offset="60%" style="stop-color:white;stop-opacity:0.07"/>
      <stop offset="100%" style="stop-color:transparent"/>
    </linearGradient>
    <linearGradient id="foil" x1="0%" y1="0%" x2="100%" y2="100%">
      <stop offset="0%"   style="stop-color:#FB923C;stop-opacity:0.12"/>
      <stop offset="33%"  style="stop-color:#FED7AA;stop-opacity:0.08"/>
      <stop offset="66%"  style="stop-color:#FB923C;stop-opacity:0.12"/>
      <stop offset="100%" style="stop-color:#FED7AA;stop-opacity:0.06"/>
    </linearGradient>
    <filter id="glow-filter">
      <feGaussianBlur stdDeviation="6" result="blur"/>
      <feMerge><feMergeNode in="blur"/><feMergeNode in="SourceGraphic"/></feMerge>
    </filter>
    <filter id="text-glow">
      <feGaussianBlur stdDeviation="2" result="blur"/>
      <feMerge><feMergeNode in="blur"/><feMergeNode in="SourceGraphic"/></feMerge>
    </filter>
    <clipPath id="card-clip"><rect x="0" y="0" width="280" height="390" rx="14"/></clipPath>
  </defs>
  
  <!-- Card base -->
  <g clip-path="url(#card-clip)">
    <rect width="280" height="390" fill="url(#bg)"/>
    
    <!-- Art area background -->
    <rect x="12" y="38" width="256" height="236" fill="url(#artbg)" rx="6"/>
    
    <!-- Radial glow in art area -->
    <ellipse cx="140" cy="155" rx="120" ry="110" fill="url(#glow)"/>
    
    <!-- Creature art -->
    
      <!-- Leaf base -->
      <ellipse cx="140" cy="220" rx="70" ry="40" fill="#27AE60" opacity="0.15"/>
      <!-- Vines -->
      <path d="M90,260 Q85,220 100,190 Q110,215 90,260 Z" fill="#27AE60" opacity="0.3"/>
      <path d="M190,260 Q195,220 180,190 Q170,215 190,260 Z" fill="#27AE60" opacity="0.3"/>
      <!-- Bulb -->
      <ellipse cx="140" cy="210" rx="48" ry="45" fill="#27AE60" opacity="0.35"/>
      <ellipse cx="140" cy="200" rx="38" ry="35" fill="#27AE60" opacity="0.45"/>
      <!-- Flower/bud on top -->
      <path d="M140,145 Q125,125 130,110 Q140,120 150,110 Q155,125 140,145 Z" fill="#90EE90" opacity="0.6"/>
      <path d="M140,145 Q115,138 108,125 Q122,128 140,145 Z" fill="#90EE90" opacity="0.5"/>
      <path d="M140,145 Q165,138 172,125 Q158,128 140,145 Z" fill="#90EE90" opacity="0.5"/>
      <!-- Head -->
      <ellipse cx="140" cy="162" rx="26" ry="24" fill="#27AE60" opacity="0.6"/>
      <!-- Eyes -->
      <circle cx="131" cy="159" r="5" fill="#90EE90" opacity="0.9"/>
      <circle cx="149" cy="159" r="5" fill="#90EE90" opacity="0.9"/>
      <circle cx="131" cy="159" r="2" fill="#fff"/>
      <circle cx="149" cy="159" r="2" fill="#fff"/>
    
    
    <!-- Particles -->
    
    
    <!-- Foil overlay on art -->
    <rect x="12" y="38" width="256" height="236" fill="url(#foil)" rx="6"/>
    
    <!-- Shimmer sweep (animated) -->
    
    
    <!-- Bottom info panel -->
    <rect x="0" y="282" width="280" height="108" fill="#1a0800" opacity="0.95"/>
    <rect x="0" y="282" width="280" height="1" fill="#FB923C" opacity="0.5"/>
    
    <!-- Rarity color strip -->
    <rect x="0" y="282" width="280" height="3" fill="#FB923C" opacity="0.8"/>
    
    <!-- Card name -->
    <text x="140" y="307" text-anchor="middle" font-family="Arial Black,sans-serif"
      font-size="15" font-weight="900" fill="#FED7AA" filter="url(#text-glow)"
      letter-spacing="0.5">Venusaur — Illustratio…</text>
    
    <!-- Set + number -->
    <text x="20" y="328" font-family="Arial,sans-serif" font-size="9"
      fill="#FB923C" opacity="0.7" letter-spacing="0.5">151 · 174</text>
    
    <!-- Rarity label -->
    <text x="260" y="328" text-anchor="end" font-family="Arial,sans-serif" font-size="9"
      fill="#FB923C" opacity="0.7">ILLUSTRATION RARE</text>
    
    <!-- Divider line -->
    <line x1="16" y1="334" x2="264" y2="334" stroke="#FB923C" stroke-width="0.5" opacity="0.3"/>
    
    <!-- Price -->
    <text x="140" y="358" text-anchor="middle" font-family="Arial Black,monospace"
      font-size="22" font-weight="900" fill="#FB923C" filter="url(#glow-filter)">€12</text>
    
    <!-- PokéVault watermark -->
    <text x="140" y="378" text-anchor="middle" font-family="Arial,sans-serif"
      font-size="8" fill="#FB923C" opacity="0.3" letter-spacing="3">POKÉVAULT</text>
    
    <!-- Outer borders -->
    <rect x="0" y="0" width="280" height="390" fill="none" stroke="#FB923C" stroke-width="2" rx="14" opacity="0.7"/>
    <rect x="5" y="5" width="270" height="380" fill="none" stroke="#FED7AA" stroke-width="0.5" rx="11" opacity="0.4"/>
    
    <!-- Top type bar -->
    <rect x="12" y="12" width="256" height="22" fill="#FB923C" opacity="0.15" rx="4"/>
    <rect x="12" y="12" width="256" height="22" fill="none" stroke="#FB923C" stroke-width="0.5" rx="4" opacity="0.4"/>
    
    <!-- HP / energy dots in top bar -->
    <circle cx="24" cy="23" r="5" fill="#FB923C" opacity="0.7"/>
    <circle cx="37" cy="23" r="5" fill="#FB923C" opacity="0.5"/>
    <circle cx="50" cy="23" r="5" fill="#FB923C" opacity="0.3"/>
    
    <!-- Card type text in top bar -->
    <text x="140" y="27" text-anchor="middle" font-family="Arial,sans-serif"
      font-size="9" fill="#FED7AA" opacity="0.8" letter-spacing="4">GRASS</text>
    
    <!-- HP value -->
    <text x="256" y="27" text-anchor="end" font-family="Arial Black,sans-serif"
      font-size="10" fill="#FED7AA" opacity="0.7">HP 74</text>
  </g>
</svg>